<svg width="184" height="144" viewBox="0 0 184 144" fill="none" xmlns="http://www.w3.org/2000/svg">
<path d="M41.9211 3.1758C41.9211 1.47383 40.5399 0.0941162 38.8361 0.0941162H4.07908C2.37531 0.0941162 0.994141 1.47383 0.994141 3.1758V140.824C0.994141 142.526 2.37532 143.906 4.07909 143.906H38.8361C40.5399 143.906 41.9211 142.526 41.9211 140.824V101.158L142.079 76.4328V140.824C142.079 142.526 143.46 143.906 145.164 143.906H179.921C181.625 143.906 183.006 142.526 183.006 140.824V3.1758C183.006 1.47383 181.625 0.0941162 179.921 0.0941162H145.164C143.46 0.0941162 142.079 1.47383 142.079 3.1758V42.5371L41.9211 67.2624V3.1758Z" fill="#1A1A1D"/>
</svg>
